<?xml version="1.0" encoding="UTF-8"?>
<svg id="_레이어_1" data-name="레이어_1" xmlns="http://www.w3.org/2000/svg" viewBox="0 0 315.01 72.89">
  <defs>
    <style>
      .cls-1 {
        fill: none;
      }

      .cls-2 {
        stroke: #231916;
        stroke-miterlimit: 10;
        stroke-width: .75px;
      }
    </style>
  </defs>
  <g>
    <path class="cls-2" d="M13.61,24.69c-1.04-2.54-2.07-5.12-3.11-7.74-.38.03-.76.06-1.14.09.18,2.85.37,5.7.55,8.53-.02,9-.03,17.99-.05,26.99-3.16.82-6.32,1.67-9.48,2.56,0-17.9,0-35.8,0-53.69,3.71-.03,7.43-.05,11.14-.07,4.17,9.05,8.32,17.54,12.46,25.58,1.03,2.41,2.07,4.78,3.1,7.13.38-.06.76-.12,1.14-.17-.18-2.6-.35-5.2-.53-7.81.04-8.27.08-16.55.12-24.82,3.19-.02,6.38-.03,9.57-.05-.09,15.05-.18,30.1-.27,45.15-3.7.73-7.4,1.5-11.09,2.32-4.13-7.55-8.27-15.52-12.42-24.01Z"/>
    <path class="cls-2" d="M40.96,23.44C41.06,6.65,48.96.32,60.9.42c11.93.07,19.75,5.61,19.64,19.94-.11,14.35-8.03,20.75-19.96,22.65-11.93,1.95-19.71-2.78-19.61-19.58ZM69.63,26.27c.03-3.47.05-6.94.08-10.41.04-5.41-3.22-8.14-8.87-8-5.65.13-8.95,3.22-8.99,9.04-.03,3.7-.05,7.4-.08,11.1-.04,5.82,3.22,8.33,8.86,7.59,5.64-.73,8.95-3.89,9-9.31Z"/>
    <path class="cls-2" d="M92.45,33.67c0,.48,0,.96-.01,1.44-.03,4.28-2.71,8.75-7.11,11.89-2.22.29-4.44.59-6.66.91,3.24-2.79,5.41-5.29,6.57-8.26-3.15.02-4.57-1.24-4.55-3.4,0-.5,0-.99.01-1.49.02-2.43,1.89-4.16,5.9-4.48,4.01-.32,5.86,1.04,5.84,3.39Z"/>
    <path class="cls-2" d="M97.29,37.93c.09-12.3.18-24.61.26-36.91,10.29-.02,20.58-.04,30.87-.05,0,2.09-.02,4.17-.03,6.26-6.89.06-13.78.14-20.67.24-.02,2.72-.03,5.45-.05,8.17,5.84-.18,11.69-.32,17.54-.44,0,2.08-.02,4.15-.03,6.23-5.85.16-11.7.37-17.55.62-.02,2.86-.04,5.72-.05,8.59,6.9-.42,13.81-.74,20.72-.98,0,2.09-.02,4.17-.03,6.26-10.34.43-20.67,1.1-30.99,2.01Z"/>
    <path class="cls-2" d="M170.36,35.42c-3.95-.07-7.9-.11-11.85-.12-3.04-4.1-6.08-8.19-9.11-12.27-.33,0-.67,0-1,0-2.95,4.13-5.9,8.29-8.85,12.49-3.66.09-7.33.22-10.99.37,4.74-6.17,9.47-12.19,14.18-18.14-4.43-5.55-8.85-11.13-13.26-16.79,3.93,0,7.86,0,11.79,0,2.66,3.77,5.32,7.53,7.99,11.28.38,0,.76,0,1.15,0,2.7-3.77,5.4-7.52,8.09-11.28,3.64,0,7.29,0,10.93,0-4.49,5.59-9,11.15-13.51,16.73,4.8,5.87,9.61,11.75,14.43,17.73Z"/>
    <path class="cls-2" d="M168.11,18.42c-.02-12.86,8.05-18.03,19.98-18.05,9,0,13.66,2.68,17.06,8.4-2.95,1.05-5.9,2.09-8.85,3.11-1.09-3.06-2.75-5.16-8.18-5.2-5.65-.04-9.15,2.33-9.13,7.09,0,3.01.02,6.03.03,9.04.01,4.77,3.54,7.23,9.21,7.44,5.45.21,7.45-2.11,8.72-5.11,2.83,1.26,5.65,2.55,8.48,3.87-3.41,5.24-8.12,7.98-17.17,7.56-11.99-.55-20.12-5.29-20.14-18.16Z"/>
    <path class="cls-2" d="M217.53,1.02c.06,7.98.11,15.97.17,23.95.03,4.86,1.98,7,7.79,7.49,5.8.51,7.71-1.38,7.67-6.46-.07-8.32-.13-16.63-.2-24.95,3.41,0,6.81.02,10.22.03.07,8.22.13,16.44.2,24.66.09,11.23-4.52,15.03-17.84,13.56-13.33-1.37-18.02-5.73-18.08-15.87-.05-7.48-.1-14.97-.14-22.45,3.41,0,6.81.01,10.22.02Z"/>
    <path class="cls-2" d="M245.6,35.44c2.18-1.5,4.36-3.03,6.53-4.58,2.81,3.22,6.75,5.35,11.24,5.99,4.71.68,7.12-.75,7.1-4.47-.02-3.02-1.67-4.85-5.32-5.83-1.52-.4-3.05-.8-4.57-1.18-9.15-2.33-13.47-6.32-13.52-12.98-.06-7.71,5.77-11.9,16.77-11.95,7.15,0,12.38,1.93,16.11,6.29-2.18,1.94-4.36,3.83-6.53,5.66-2.52-2.86-5.52-4.19-9.67-4.32-4.5-.13-6.49,1.19-6.47,4.34.02,2.74,1.53,4.19,5.04,5.03,1.53.36,3.05.74,4.58,1.12,9.79,2.43,13.73,6.43,13.77,14.18.05,9.8-6.1,13.74-17.44,11.7-7.56-1.3-13.3-4.27-17.62-9Z"/>
    <path class="cls-2" d="M284.01,47.63c-.08-15.46-.16-30.92-.24-46.37,10.29.05,20.58.11,30.86.18,0,3.21,0,6.41,0,9.62-6.87-.38-13.74-.73-20.61-1.05.01,3.66.03,7.33.04,10.99,5.82.57,11.63,1.18,17.44,1.85,0,3.13,0,6.26,0,9.39-5.8-.94-11.61-1.81-17.42-2.61.01,3.85.03,7.7.04,11.55,6.85,1.31,13.68,2.76,20.5,4.34,0,3.21,0,6.41,0,9.62-10.17-2.87-20.39-5.36-30.63-7.51Z"/>
  </g>
  <g>
    <rect class="cls-1" x="122.12" y="50.19" width="69.42" height="22.7"/>
    <path d="M130.9,56.82c-.05-.55-.29-.98-.7-1.28-.41-.3-.97-.46-1.68-.46-.48,0-.89.07-1.22.2-.33.13-.58.32-.76.55-.18.24-.26.5-.26.8,0,.25.04.47.16.65.12.19.28.35.48.48.2.13.44.25.71.35s.55.18.86.25l1.25.3c.61.14,1.17.32,1.68.54.51.23.95.51,1.32.84.37.33.66.72.87,1.17.21.45.31.97.32,1.55,0,.85-.22,1.59-.65,2.22-.43.62-1.05,1.11-1.85,1.45-.81.34-1.78.51-2.91.51s-2.11-.17-2.94-.52c-.83-.34-1.48-.86-1.95-1.54-.47-.68-.71-1.52-.73-2.52h2.85c.03.47.17.86.41,1.17.24.31.56.54.96.7.4.16.86.24,1.37.24s.93-.07,1.3-.22.66-.35.86-.61c.2-.26.31-.56.31-.89,0-.31-.09-.58-.28-.79s-.45-.4-.8-.54c-.35-.15-.78-.29-1.29-.41l-1.52-.38c-1.18-.29-2.11-.73-2.79-1.34-.68-.61-1.02-1.43-1.02-2.46,0-.84.22-1.58.68-2.21.46-.63,1.08-1.12,1.88-1.48.8-.35,1.71-.53,2.73-.53s1.94.18,2.72.53,1.38.85,1.81,1.48c.43.63.65,1.36.67,2.19h-2.83Z"/>
    <path d="M134.94,66.76v-13.96h9.4v2.43h-6.45v3.33h5.97v2.43h-5.97v3.33h6.48v2.43h-9.43Z"/>
    <path d="M145.73,66.76v-13.96h2.95v11.52h5.98v2.43h-8.93Z"/>
    <path d="M155.66,66.76v-13.96h9.4v2.43h-6.45v3.33h5.97v2.43h-5.97v3.33h6.48v2.43h-9.43Z"/>
    <path d="M178.77,57.69h-2.98c-.05-.39-.17-.73-.33-1.03s-.38-.56-.65-.77c-.26-.21-.57-.38-.91-.49-.34-.11-.71-.17-1.11-.17-.72,0-1.35.18-1.89.54s-.95.88-1.25,1.55c-.29.68-.44,1.5-.44,2.47s.15,1.83.45,2.51c.3.68.71,1.19,1.25,1.53.54.34,1.16.52,1.86.52.4,0,.76-.05,1.1-.16.34-.1.64-.26.9-.46.26-.2.48-.45.66-.74.17-.29.3-.62.36-1h2.98c-.08.65-.27,1.27-.58,1.86s-.72,1.12-1.23,1.59c-.52.47-1.13.83-1.84,1.1-.71.27-1.51.41-2.41.41-1.24,0-2.36-.28-3.33-.84-.98-.56-1.75-1.38-2.32-2.45-.57-1.07-.85-2.36-.85-3.88s.29-2.82.86-3.88,1.35-1.88,2.33-2.44c.98-.56,2.08-.84,3.31-.84.81,0,1.56.11,2.25.34s1.31.56,1.84.99c.54.43.97.96,1.31,1.59.34.63.55,1.34.65,2.15Z"/>
    <path d="M179.39,55.24v-2.43h11.46v2.43h-4.27v11.52h-2.92v-11.52h-4.27Z"/>
  </g>
</svg>