<svg width="292" height="51" viewBox="0 0 292 51" fill="none" xmlns="http://www.w3.org/2000/svg">
<path d="M33.9824 0.999999V41H26.6777L9.27539 15.8242H8.98242V41H0.525391V0.999999H7.94727L25.2129 26.1562H25.5645V0.999999H33.9824ZM74.9775 21C74.9775 25.362 74.1507 29.0729 72.4971 32.1328C70.8564 35.1927 68.6169 37.5299 65.7783 39.1445C62.9528 40.7461 59.7757 41.5469 56.2471 41.5469C52.6924 41.5469 49.5023 40.7396 46.6768 39.125C43.8512 37.5104 41.6182 35.1732 39.9775 32.1133C38.3369 29.0534 37.5166 25.349 37.5166 21C37.5166 16.638 38.3369 12.9271 39.9775 9.86719C41.6182 6.80729 43.8512 4.47656 46.6768 2.875C49.5023 1.26042 52.6924 0.453124 56.2471 0.453124C59.7757 0.453124 62.9528 1.26042 65.7783 2.875C68.6169 4.47656 70.8564 6.80729 72.4971 9.86719C74.1507 12.9271 74.9775 16.638 74.9775 21ZM66.4033 21C66.4033 18.1745 65.9801 15.7917 65.1338 13.8516C64.3005 11.9115 63.1221 10.4401 61.5986 9.4375C60.0752 8.4349 58.2913 7.93359 56.2471 7.93359C54.2028 7.93359 52.4189 8.4349 50.8955 9.4375C49.3721 10.4401 48.1872 11.9115 47.3408 13.8516C46.5075 15.7917 46.0908 18.1745 46.0908 21C46.0908 23.8255 46.5075 26.2083 47.3408 28.1484C48.1872 30.0885 49.3721 31.5599 50.8955 32.5625C52.4189 33.5651 54.2028 34.0664 56.2471 34.0664C58.2913 34.0664 60.0752 33.5651 61.5986 32.5625C63.1221 31.5599 64.3005 30.0885 65.1338 28.1484C65.9801 26.2083 66.4033 23.8255 66.4033 21ZM84.8545 35.5312L84.6396 37.6797C84.4704 39.3984 84.1449 41.1107 83.6631 42.8164C83.1943 44.5352 82.6995 46.0911 82.1787 47.4844C81.6709 48.8776 81.2607 49.9714 80.9482 50.7656H75.5576C75.7529 49.9974 76.0199 48.9232 76.3584 47.543C76.6969 46.1758 77.016 44.6393 77.3154 42.9336C77.6149 41.2279 77.8037 39.4896 77.8818 37.7187L77.9795 35.5312H84.8545ZM89.8682 41V0.999999H116.821V7.97265H98.3252V17.5039H115.435V24.4766H98.3252V34.0273H116.899V41H89.8682ZM128.725 0.999999L136.791 14.6328H137.104L145.209 0.999999H154.76L142.553 21L155.033 41H145.307L137.104 27.3477H136.791L128.588 41H118.9L131.42 21L119.135 0.999999H128.725ZM190.774 15.0039H182.22C182.063 13.8971 181.744 12.9141 181.263 12.0547C180.781 11.1823 180.162 10.4401 179.407 9.82812C178.652 9.21614 177.78 8.74739 176.79 8.42187C175.813 8.09635 174.752 7.93359 173.606 7.93359C171.536 7.93359 169.733 8.44792 168.196 9.47656C166.66 10.4922 165.468 11.9766 164.622 13.9297C163.776 15.8698 163.353 18.2266 163.353 21C163.353 23.8516 163.776 26.2474 164.622 28.1875C165.481 30.1276 166.679 31.5924 168.216 32.582C169.752 33.5716 171.53 34.0664 173.548 34.0664C174.681 34.0664 175.729 33.9167 176.692 33.6172C177.669 33.3177 178.535 32.8815 179.29 32.3086C180.045 31.7227 180.67 31.013 181.165 30.1797C181.673 29.3464 182.024 28.3958 182.22 27.3281L190.774 27.3672C190.553 29.2031 190 30.974 189.114 32.6797C188.242 34.3724 187.063 35.8893 185.579 37.2305C184.108 38.5586 182.35 39.6133 180.306 40.3945C178.274 41.1628 175.976 41.5469 173.411 41.5469C169.843 41.5469 166.653 40.7396 163.841 39.125C161.041 37.5104 158.828 35.1732 157.2 32.1133C155.586 29.0534 154.778 25.349 154.778 21C154.778 16.638 155.599 12.9271 157.239 9.86719C158.88 6.80729 161.106 4.47656 163.919 2.875C166.731 1.26042 169.896 0.453124 173.411 0.453124C175.729 0.453124 177.877 0.778644 179.856 1.42969C181.849 2.08073 183.613 3.03125 185.149 4.28125C186.686 5.51823 187.936 7.03515 188.899 8.83203C189.876 10.6289 190.501 12.6862 190.774 15.0039ZM218.796 0.999999H227.253V26.9766C227.253 29.8932 226.556 32.4453 225.163 34.6328C223.783 36.8203 221.849 38.526 219.362 39.75C216.875 40.9609 213.978 41.5664 210.671 41.5664C207.351 41.5664 204.447 40.9609 201.96 39.75C199.473 38.526 197.539 36.8203 196.159 34.6328C194.779 32.4453 194.089 29.8932 194.089 26.9766V0.999999H202.546V26.2539C202.546 27.7773 202.878 29.1315 203.542 30.3164C204.219 31.5013 205.17 32.4323 206.394 33.1094C207.618 33.7865 209.043 34.125 210.671 34.125C212.312 34.125 213.737 33.7865 214.948 33.1094C216.172 32.4323 217.116 31.5013 217.78 30.3164C218.457 29.1315 218.796 27.7773 218.796 26.2539V0.999999ZM253.16 12.5039C253.004 10.9284 252.333 9.70443 251.148 8.83203C249.964 7.95963 248.355 7.52344 246.324 7.52344C244.944 7.52344 243.779 7.71875 242.828 8.10937C241.878 8.48698 241.148 9.01432 240.641 9.6914C240.146 10.3685 239.898 11.1367 239.898 11.9961C239.872 12.7122 240.022 13.3372 240.348 13.8711C240.686 14.4049 241.148 14.8672 241.734 15.2578C242.32 15.6354 242.997 15.9674 243.766 16.2539C244.534 16.5273 245.354 16.7617 246.227 16.957L249.82 17.8164C251.565 18.207 253.167 18.7279 254.625 19.3789C256.083 20.0299 257.346 20.8307 258.414 21.7812C259.482 22.7318 260.309 23.8516 260.895 25.1406C261.493 26.4297 261.799 27.9076 261.812 29.5742C261.799 32.0221 261.174 34.1445 259.938 35.9414C258.714 37.7253 256.943 39.112 254.625 40.1016C252.32 41.0781 249.54 41.5664 246.285 41.5664C243.056 41.5664 240.243 41.0716 237.848 40.082C235.465 39.0924 233.603 37.6276 232.262 35.6875C230.934 33.7344 230.237 31.319 230.172 28.4414H238.355C238.447 29.7826 238.831 30.9023 239.508 31.8008C240.198 32.6862 241.116 33.3568 242.262 33.8125C243.421 34.2552 244.729 34.4766 246.187 34.4766C247.62 34.4766 248.863 34.2682 249.918 33.8516C250.986 33.4349 251.813 32.8555 252.398 32.1133C252.984 31.3711 253.277 30.5182 253.277 29.5547C253.277 28.6562 253.01 27.901 252.477 27.2891C251.956 26.6771 251.188 26.1562 250.172 25.7266C249.169 25.2969 247.939 24.9062 246.48 24.5547L242.125 23.4609C238.753 22.6406 236.09 21.3581 234.137 19.6133C232.184 17.8685 231.214 15.5182 231.227 12.5625C231.214 10.1406 231.858 8.02474 233.16 6.21484C234.475 4.40495 236.279 2.99219 238.57 1.97656C240.862 0.960936 243.466 0.453124 246.383 0.453124C249.352 0.453124 251.943 0.960936 254.156 1.97656C256.383 2.99219 258.115 4.40495 259.352 6.21484C260.589 8.02474 261.227 10.1211 261.266 12.5039H253.16ZM264.751 41V0.999999H291.704V7.97265H273.208V17.5039H290.317V24.4766H273.208V34.0273H291.782V41H264.751Z" fill="#C60000"/>
</svg>
